<svg xmlns="http://www.w3.org/2000/svg" version="1.1" xmlns:xlink="http://www.w3.org/1999/xlink" xmlns:svgjs="http://svgjs.dev/svgjs" width="1500" height="318" viewBox="0 0 1500 318"><g transform="matrix(1,0,0,1,-0.9090909090909918,-1.5157001416979483)"><svg viewBox="0 0 396 84" data-background-color="#ffffff" preserveAspectRatio="xMidYMid meet" height="318" width="1500" xmlns="http://www.w3.org/2000/svg" xmlns:xlink="http://www.w3.org/1999/xlink"><g id="tight-bounds" transform="matrix(1,0,0,1,0.2400000000000091,0.4003736223353087)"><svg viewBox="0 0 395.52 83.19914734289287" height="83.19914734289287" width="395.52"><g><svg viewBox="0 0 534.1374434057446 112.35785764378704" height="83.19914734289287" width="395.52"><g transform="matrix(1,0,0,1,138.61744340574467,28.370526271488558)"><svg viewBox="0 0 395.52 55.61680510080993" height="55.61680510080993" width="395.52"><g id="textblocktransform"><svg viewBox="0 0 395.52 55.61680510080993" height="55.61680510080993" width="395.52" id="textblock"><g><svg viewBox="0 0 395.52 55.61680510080993" height="55.61680510080993" width="395.52"><g transform="matrix(1,0,0,1,0,0)"><svg width="395.52" viewBox="3 -39.9 290.13 40.8" height="55.61680510080993" data-palette-color="#aec9cf"><path d="M15-18.5L15-18.5 15 0 3 0 3-39 15-39.9 15-28.9Q18.85-30.9 23.5-30.9L23.5-30.9Q28.2-30.9 30.6-29.08 33-27.25 33-24L33-24 33 0 21 0 21-21 19.15-21Q16.95-21 15.98-20.55 15-20.1 15-18.5ZM37.5-15L37.5-15Q37.5-23.05 41.25-26.98 45-30.9 53.4-30.9L53.4-30.9Q61.8-30.9 65.55-26.98 69.3-23.05 69.3-15L69.3-15Q69.3-6.95 65.55-3.03 61.8 0.9 53.4 0.9L53.4 0.9Q45.2 0.9 41.35-2.95 37.5-6.8 37.5-15ZM50.4-19.6L50.4-19.6 50.4-7.85 52.25-7.85Q54.45-7.85 55.42-8.3 56.4-8.75 56.4-10.4L56.4-10.4 56.4-22.15 54.55-22.15Q52.35-22.15 51.37-21.7 50.4-21.25 50.4-19.6ZM102.89 0L90.89 0 90.89-21 90.05-21Q89.25-21 88.52-20.95 87.8-20.9 87.25-20.63 86.69-20.35 86.39-19.8 86.09-19.25 86.09-18.25L86.09-18.25 86.09 0 74.09 0 74.09-30 80.09-30 82.8-27.25Q86.44-30.9 92.39-30.9L92.39-30.9Q98.3-30.9 101-28.45L101-28.45Q104.75-30.9 109.5-30.9L109.5-30.9Q114.34-30.9 117.02-29.08 119.69-27.25 119.69-24L119.69-24 119.69 0 107.69 0 107.69-21 106.84-21Q106.15-21 105.44-20.95 104.75-20.9 104.22-20.68 103.69-20.45 103.32-19.95 102.94-19.45 102.89-18.6L102.89-18.6 102.89 0ZM137.04-10.2L137.04-10.2 137.04-8.1Q137.94-8 138.84-7.95 139.74-7.9 140.64-7.9L140.64-7.9Q146.24-7.9 151.94-9.7L151.94-9.7 153.34-0.9Q146.59 0.9 140.04 0.9L140.04 0.9Q131.64 0.9 127.89-3.03 124.14-6.95 124.14-15L124.14-15Q124.14-23.05 127.92-26.98 131.69-30.9 140.04-30.9L140.04-30.9Q144.24-30.9 147.04-30.38 149.84-29.85 151.57-28.63 153.29-27.4 154.02-25.33 154.74-23.25 154.74-20.1L154.74-20.1Q154.74-17.5 153.87-15.63 152.99-13.75 150.94-12.55 148.89-11.35 145.49-10.78 142.09-10.2 137.04-10.2ZM137.04-19.6L137.04-19.6 137.04-17.15 139.49-17.15Q141.69-17.15 142.67-17.6 143.64-18.05 143.64-19.7L143.64-19.7 143.64-22.15 141.19-22.15Q138.99-22.15 138.02-21.7 137.04-21.25 137.04-19.6ZM170.29 0L170.99-18.2 171.34-18.2 175.99 0 185.14 0 189.74-18.2 190.14-18.2 190.84 0 203.39 0 201.14-37.5 185.44-37.5 180.79-18.4 180.34-18.4 175.69-37.5 160.04-37.5 157.74 0 170.29 0ZM222.09-30.9L222.09-30.9Q236.49-30.9 236.49-21L236.49-21 236.49 0 230.49 0 227.09-3.4Q226.19-2.4 224.96-1.6 223.74-0.8 222.34-0.25 220.94 0.3 219.49 0.6 218.04 0.9 216.69 0.9L216.69 0.9Q214.14 0.9 212.11 0.38 210.09-0.15 208.69-1.3 207.29-2.45 206.54-4.35 205.79-6.25 205.79-9L205.79-9Q205.79-19.8 222.09-19.8L222.09-19.8 224.49-19.8 224.49-21.95Q223.54-22 222.76-22.05 221.99-22.1 221.34-22.1L221.34-22.1Q214.59-22.1 209.69-20.45L209.69-20.45 208.24-29.05Q214.24-30.9 222.09-30.9ZM217.89-10.3L217.89-10.3 217.89-7.85 220.39-7.85Q222.99-7.85 223.79-8.45L223.79-8.45Q224.49-9.1 224.49-10L224.49-10 224.49-12.85 222.04-12.85Q219.89-12.85 218.89-12.4 217.89-11.95 217.89-10.3ZM243.09-5.65L243.09-22.25 240.09-22.25 240.09-30 243.09-30 243.09-34.8 255.09-37.8 255.09-30 259.24-30 259.24-22.25 255.09-22.25 255.09-8.6Q255.84-8.45 256.74-8.33 257.63-8.2 258.63-8.15L258.63-8.15 258.09 0.65Q249.89 0.65 247.39-0.25L247.39-0.25Q245.29-1 244.19-2.18 243.09-3.35 243.09-5.65L243.09-5.65ZM275.43-10.2L275.43-10.2 275.43-8.1Q276.33-8 277.23-7.95 278.13-7.9 279.03-7.9L279.03-7.9Q284.63-7.9 290.33-9.7L290.33-9.7 291.73-0.9Q284.98 0.9 278.43 0.9L278.43 0.9Q270.03 0.9 266.28-3.03 262.53-6.95 262.53-15L262.53-15Q262.53-23.05 266.31-26.98 270.08-30.9 278.43-30.9L278.43-30.9Q282.63-30.9 285.43-30.38 288.23-29.85 289.96-28.63 291.68-27.4 292.41-25.33 293.13-23.25 293.13-20.1L293.13-20.1Q293.13-17.5 292.26-15.63 291.38-13.75 289.33-12.55 287.28-11.35 283.88-10.78 280.48-10.2 275.43-10.2ZM275.43-19.6L275.43-19.6 275.43-17.15 277.88-17.15Q280.08-17.15 281.06-17.6 282.03-18.05 282.03-19.7L282.03-19.7 282.03-22.15 279.58-22.15Q277.38-22.15 276.41-21.7 275.43-21.25 275.43-19.6Z" opacity="1" transform="matrix(1,0,0,1,0,0)" fill="#aec9cf" class="wordmark-text-0" data-fill-palette-color="primary" id="text-0"></path></svg></g></svg></g></svg></g></svg></g><g><svg viewBox="0 0 112.35785764378704 112.35785764378704" height="112.35785764378704" width="112.35785764378704"><g><svg></svg></g><g id="icon-0"><svg viewBox="0 0 112.35785764378704 112.35785764378704" height="112.35785764378704" width="112.35785764378704"><g><path d="M0 56.179c0-31.027 25.152-56.179 56.179-56.179 31.027 0 56.179 25.152 56.179 56.179 0 31.027-25.152 56.179-56.179 56.179-31.027 0-56.179-25.152-56.179-56.179zM56.179 107.342c28.257 0 51.163-22.907 51.163-51.163 0-28.257-22.907-51.163-51.163-51.163-28.257 0-51.163 22.907-51.163 51.163 0 28.257 22.907 51.163 51.163 51.163z" data-fill-palette-color="accent" fill="#89939e" stroke="transparent"></path><ellipse rx="55.61713953367459" ry="55.61713953367459" cx="56.17892882189352" cy="56.17892882189352" fill="#89939e" stroke="transparent" stroke-width="0" fill-opacity="1" data-fill-palette-color="accent"></ellipse></g><g transform="matrix(1,0,0,1,24.857104876411952,27.43305864854931)"><svg viewBox="0 0 62.64364789096314 57.491740346688424" height="57.491740346688424" width="62.64364789096314"><g><svg version="1.1" xmlns="http://www.w3.org/2000/svg" xmlns:xlink="http://www.w3.org/1999/xlink" x="0" y="0" viewBox="0.145798715412505 4.19 99.99907378911512 91.775" enable-background="new 0.146 4.189 100 91.775" xml:space="preserve" id="dxe-0" width="62.64364789096314" height="57.491740346688424" class="icon-dxe-0" data-fill-palette-color="quaternary"><g fill="#ffffff" data-fill-palette-color="quaternary"><path d="M99.511 38.569L50.993 4.606A1.49 1.49 0 0 0 49.285 4.606L0.779 38.569A1.49 1.49 0 0 0 0.415 40.642L7.021 50.076A1.485 1.485 0 0 0 9.095 50.442L50.146 21.694 91.195 50.442A1.49 1.49 0 0 0 93.269 50.076L99.876 40.642A1.49 1.49 0 0 0 99.511 38.569" fill="#ffffff" data-fill-palette-color="quaternary"></path><path d="M87.456 53.667L50.999 28.137A1.49 1.49 0 0 0 49.292 28.137L12.641 53.803A1.49 1.49 0 0 0 12.006 55.023V94.477C12.006 95.297 12.673 95.965 13.496 95.965H38.998A1.49 1.49 0 0 0 40.487 94.477V60.095H59.807V94.477C59.807 95.297 60.473 95.965 61.296 95.965H86.605C87.428 95.965 88.091 95.297 88.091 94.477V54.886A1.49 1.49 0 0 0 87.456 53.667" fill="#ffffff" data-fill-palette-color="quaternary"></path><path d="M74.213 15.768L85.624 23.758A1.49 1.49 0 0 0 87.166 23.86C87.656 23.604 87.967 23.094 87.967 22.539V5.678C87.967 4.856 87.3 4.19 86.478 4.19H75.065C74.243 4.19 73.577 4.857 73.577 5.678V14.549C73.576 15.033 73.812 15.489 74.213 15.768" fill="#ffffff" data-fill-palette-color="quaternary"></path></g></svg></g></svg></g></svg></g></svg></g></svg></g><defs></defs></svg><rect width="395.52" height="83.19914734289287" fill="none" stroke="none" visibility="hidden"></rect></g></svg></g></svg>